<mxfile host="app.diagrams.net" modified="2020-10-08T11:08:14.714Z" agent="5.0 (Windows NT 10.0; WOW64) AppleWebKit/537.36 (KHTML, like Gecko) Chrome/85.0.4183.121 Safari/537.36" etag="8E3iMTYt-609SVQRtb3y" version="13.7.8" type="github">
  <diagram id="QlbHECQIBzcWSnL0QxUy" name="Page-1">
    <mxGraphModel dx="1422" dy="713" grid="1" gridSize="10" guides="1" tooltips="1" connect="1" arrows="1" fold="1" page="1" pageScale="1" pageWidth="827" pageHeight="1169" background="#EEEEEE" math="0" shadow="0">
      <root>
        <mxCell id="0" />
        <mxCell id="1" style="" parent="0" />
        <mxCell id="wH7yX8hCxFd5v8MfgCOh-24" style="edgeStyle=orthogonalEdgeStyle;curved=0;rounded=1;orthogonalLoop=1;jettySize=auto;html=1;exitX=0.5;exitY=1;exitDx=0;exitDy=0;entryX=0.433;entryY=0;entryDx=0;entryDy=0;strokeColor=#182E3E;fontColor=#1A1A1A;labelBackgroundColor=#EEEEEE;entryPerimeter=0;endArrow=none;endFill=0;" parent="1" source="wH7yX8hCxFd5v8MfgCOh-1" target="wH7yX8hCxFd5v8MfgCOh-57" edge="1">
          <mxGeometry relative="1" as="geometry">
            <mxPoint x="571" y="545" as="targetPoint" />
          </mxGeometry>
        </mxCell>
        <mxCell id="wH7yX8hCxFd5v8MfgCOh-25" style="edgeStyle=orthogonalEdgeStyle;orthogonalLoop=1;jettySize=auto;html=1;exitX=0.5;exitY=1;exitDx=0;exitDy=0;entryX=0.5;entryY=0;entryDx=0;entryDy=0;strokeColor=#182E3E;fontColor=#1A1A1A;labelBackgroundColor=#EEEEEE;rounded=1;endArrow=none;endFill=0;" parent="1" source="wH7yX8hCxFd5v8MfgCOh-1" target="wH7yX8hCxFd5v8MfgCOh-55" edge="1">
          <mxGeometry relative="1" as="geometry">
            <mxPoint x="251" y="545" as="targetPoint" />
          </mxGeometry>
        </mxCell>
        <mxCell id="wH7yX8hCxFd5v8MfgCOh-59" style="edgeStyle=orthogonalEdgeStyle;curved=0;rounded=1;orthogonalLoop=1;jettySize=auto;html=1;exitX=0.5;exitY=1;exitDx=0;exitDy=0;strokeColor=#182E3E;fontColor=#1A1A1A;endArrow=none;endFill=0;" parent="1" source="wH7yX8hCxFd5v8MfgCOh-1" target="wH7yX8hCxFd5v8MfgCOh-56" edge="1">
          <mxGeometry relative="1" as="geometry" />
        </mxCell>
        <mxCell id="wH7yX8hCxFd5v8MfgCOh-1" value="&lt;font style=&quot;font-size: 20px&quot;&gt;孟凡平&lt;/font&gt;" style="whiteSpace=wrap;html=1;rounded=1;fillColor=#F5AB50;strokeColor=#909090;fontColor=#1A1A1A;strokeWidth=1;" parent="1" vertex="1">
          <mxGeometry x="348.5" y="330" width="120" height="60" as="geometry" />
        </mxCell>
        <mxCell id="wH7yX8hCxFd5v8MfgCOh-61" style="edgeStyle=orthogonalEdgeStyle;curved=0;rounded=1;orthogonalLoop=1;jettySize=auto;html=1;exitX=0.5;exitY=1;exitDx=0;exitDy=0;entryX=0.5;entryY=0;entryDx=0;entryDy=0;strokeColor=#182E3E;fontColor=#1A1A1A;endArrow=none;endFill=0;" parent="1" source="wH7yX8hCxFd5v8MfgCOh-55" target="wH7yX8hCxFd5v8MfgCOh-60" edge="1">
          <mxGeometry relative="1" as="geometry" />
        </mxCell>
        <mxCell id="wH7yX8hCxFd5v8MfgCOh-55" value="&lt;font style=&quot;font-size: 18px&quot;&gt;吴怀俊&lt;/font&gt;" style="rounded=1;whiteSpace=wrap;html=1;strokeColor=#909090;fillColor=#F5AB50;fontColor=#1A1A1A;" parent="1" vertex="1">
          <mxGeometry x="148.5" y="550" width="120" height="60" as="geometry" />
        </mxCell>
        <mxCell id="nco5svPNjqHIu7h5Ol7W-1" style="edgeStyle=orthogonalEdgeStyle;rounded=1;orthogonalLoop=1;jettySize=auto;html=1;exitX=0.5;exitY=1;exitDx=0;exitDy=0;endArrow=none;endFill=0;" parent="1" source="wH7yX8hCxFd5v8MfgCOh-56" target="nco5svPNjqHIu7h5Ol7W-2" edge="1">
          <mxGeometry relative="1" as="geometry">
            <mxPoint x="408.5" y="730" as="targetPoint" />
          </mxGeometry>
        </mxCell>
        <mxCell id="wH7yX8hCxFd5v8MfgCOh-56" value="&lt;font style=&quot;font-size: 18px&quot;&gt;方昌丽&lt;/font&gt;" style="rounded=1;whiteSpace=wrap;html=1;strokeColor=#909090;fillColor=#F5AB50;fontColor=#1A1A1A;" parent="1" vertex="1">
          <mxGeometry x="348.5" y="550" width="120" height="60" as="geometry" />
        </mxCell>
        <mxCell id="nco5svPNjqHIu7h5Ol7W-3" style="edgeStyle=orthogonalEdgeStyle;rounded=1;orthogonalLoop=1;jettySize=auto;html=1;exitX=0.5;exitY=1;exitDx=0;exitDy=0;endArrow=none;endFill=0;" parent="1" source="wH7yX8hCxFd5v8MfgCOh-57" target="nco5svPNjqHIu7h5Ol7W-4" edge="1">
          <mxGeometry relative="1" as="geometry">
            <mxPoint x="618.5" y="730" as="targetPoint" />
          </mxGeometry>
        </mxCell>
        <mxCell id="wH7yX8hCxFd5v8MfgCOh-57" value="&lt;font style=&quot;font-size: 18px&quot;&gt;孙关林&lt;/font&gt;" style="rounded=1;whiteSpace=wrap;html=1;strokeColor=#909090;fillColor=#F5AB50;fontColor=#1A1A1A;" parent="1" vertex="1">
          <mxGeometry x="558.5" y="550" width="120" height="60" as="geometry" />
        </mxCell>
        <mxCell id="wH7yX8hCxFd5v8MfgCOh-60" value="&lt;font style=&quot;font-size: 16px&quot;&gt;1.原材料库（请购单、到货单、入库单、出库单）&lt;br&gt;2.蛋白原液库&lt;br&gt;3.原酶库&lt;br&gt;4.质粒、菌种库&lt;/font&gt;" style="rounded=1;whiteSpace=wrap;html=1;strokeColor=#909090;fillColor=#F5AB50;fontColor=#1A1A1A;align=left;aspect=fixed;" parent="1" vertex="1">
          <mxGeometry x="126" y="725" width="165" height="165" as="geometry" />
        </mxCell>
        <mxCell id="nco5svPNjqHIu7h5Ol7W-2" value="" style="rounded=1;whiteSpace=wrap;html=1;fillColor=#F5AB50;" parent="1" vertex="1">
          <mxGeometry x="326" y="725" width="165" height="165" as="geometry" />
        </mxCell>
        <mxCell id="nco5svPNjqHIu7h5Ol7W-4" value="" style="rounded=1;whiteSpace=wrap;html=1;fillColor=#F5AB50;" parent="1" vertex="1">
          <mxGeometry x="536" y="725" width="165" height="165" as="geometry" />
        </mxCell>
      </root>
    </mxGraphModel>
  </diagram>
</mxfile>
